# xmcd CD database file
#
# Track frame offsets:
#	150
#	12825
#	24434
#	37420
#	48048
#	59333
#	72448
#	85235
#	117259
#	143380
#	184572
#
# Disc length: 2846 seconds
#
# Revision: 0
# Processed by: cddbd v1.5.1PL0 Copyright (c) Steve Scherf et al.
# Submitted via: CDex 1.50
#
DISCID=8b0b1c0b
DTITLE=山本リンダ - Doh Nimo Tomaranai Fever Linda
DYEAR=2004
DGENRE=Pop
TTITLE0=どうにもとまらない
TTITLE1=狂わせたいの
TTITLE2=じんじんさせて
TTITLE3=狙いうち
TTITLE4=燃えつきそう
TTITLE5=ぎらぎら燃えて
TTITLE6=きりきり舞い
TTITLE7=DOH-NIMO-TOMARANAI
TTITLE8=DOH-NIMO-TOMARANAI
TTITLE9=NERAIUCHI
TTITLE10=NERAIUCHI
EXTD=YEAR: 2004
EXTT0=
EXTT1=
EXTT2=
EXTT3=
EXTT4=
EXTT5=
EXTT6=
EXTT7=
EXTT8=
EXTT9=
EXTT10=
PLAYORDER=
